<mxfile host="app.diagrams.net" modified="2020-08-27T07:19:47.068Z" agent="5.0 (Windows NT 10.0; Win64; x64) AppleWebKit/537.36 (KHTML, like Gecko) Chrome/84.0.4147.135 Safari/537.36 Edg/84.0.522.63" etag="j9GDMKng0KkI4iDnWkky" version="13.6.5" type="github">
  <diagram id="ZfqqAO6QAGTzMp5zZkXT" name="第 1 页">
    <mxGraphModel dx="800" dy="781" grid="1" gridSize="10" guides="1" tooltips="1" connect="1" arrows="1" fold="1" page="1" pageScale="1" pageWidth="827" pageHeight="1169" math="0" shadow="0">
      <root>
        <mxCell id="0" />
        <mxCell id="1" parent="0" />
        <mxCell id="iZBhrlPGG-_70FGbJEdC-5" value="" style="rounded=0;whiteSpace=wrap;html=1;" vertex="1" parent="1">
          <mxGeometry x="290" y="430" width="390" height="310" as="geometry" />
        </mxCell>
        <mxCell id="iZBhrlPGG-_70FGbJEdC-1" value="minio" style="rounded=0;whiteSpace=wrap;html=1;sketch=0;" vertex="1" parent="1">
          <mxGeometry x="80" y="170" width="126" height="48" as="geometry" />
        </mxCell>
        <mxCell id="iZBhrlPGG-_70FGbJEdC-12" value="get" style="edgeStyle=orthogonalEdgeStyle;rounded=0;orthogonalLoop=1;jettySize=auto;html=1;exitX=1;exitY=0.5;exitDx=0;exitDy=0;dashed=1;endArrow=open;endFill=0;" edge="1" parent="1" source="iZBhrlPGG-_70FGbJEdC-2">
          <mxGeometry relative="1" as="geometry">
            <mxPoint x="280" y="324" as="targetPoint" />
          </mxGeometry>
        </mxCell>
        <mxCell id="iZBhrlPGG-_70FGbJEdC-17" value="find, store" style="edgeStyle=orthogonalEdgeStyle;rounded=0;orthogonalLoop=1;jettySize=auto;html=1;exitX=0.5;exitY=0;exitDx=0;exitDy=0;entryX=0.5;entryY=1;entryDx=0;entryDy=0;dashed=1;endArrow=open;endFill=0;" edge="1" parent="1" source="iZBhrlPGG-_70FGbJEdC-2" target="iZBhrlPGG-_70FGbJEdC-1">
          <mxGeometry relative="1" as="geometry" />
        </mxCell>
        <mxCell id="iZBhrlPGG-_70FGbJEdC-2" value="muses" style="rounded=0;whiteSpace=wrap;html=1;sketch=0;" vertex="1" parent="1">
          <mxGeometry x="80" y="300" width="126" height="48" as="geometry" />
        </mxCell>
        <mxCell id="iZBhrlPGG-_70FGbJEdC-7" style="edgeStyle=orthogonalEdgeStyle;rounded=0;orthogonalLoop=1;jettySize=auto;html=1;exitX=1;exitY=0.5;exitDx=0;exitDy=0;entryX=0;entryY=0.077;entryDx=0;entryDy=0;entryPerimeter=0;endArrow=open;endFill=0;dashed=1;" edge="1" parent="1" source="iZBhrlPGG-_70FGbJEdC-3" target="iZBhrlPGG-_70FGbJEdC-5">
          <mxGeometry relative="1" as="geometry" />
        </mxCell>
        <mxCell id="iZBhrlPGG-_70FGbJEdC-11" value="request" style="edgeStyle=orthogonalEdgeStyle;rounded=0;orthogonalLoop=1;jettySize=auto;html=1;exitX=0.5;exitY=0;exitDx=0;exitDy=0;entryX=0.5;entryY=1;entryDx=0;entryDy=0;dashed=1;endArrow=open;endFill=0;" edge="1" parent="1" source="iZBhrlPGG-_70FGbJEdC-3" target="iZBhrlPGG-_70FGbJEdC-2">
          <mxGeometry relative="1" as="geometry" />
        </mxCell>
        <mxCell id="iZBhrlPGG-_70FGbJEdC-3" value="admin" style="rounded=0;whiteSpace=wrap;html=1;sketch=0;" vertex="1" parent="1">
          <mxGeometry x="80" y="430" width="126" height="48" as="geometry" />
        </mxCell>
        <mxCell id="iZBhrlPGG-_70FGbJEdC-6" value="Bucket" style="shape=cylinder2;whiteSpace=wrap;html=1;boundedLbl=1;backgroundOutline=1;size=15;" vertex="1" parent="1">
          <mxGeometry x="310" y="478" width="60" height="80" as="geometry" />
        </mxCell>
        <mxCell id="iZBhrlPGG-_70FGbJEdC-10" value="upload" style="edgeStyle=orthogonalEdgeStyle;rounded=0;orthogonalLoop=1;jettySize=auto;html=1;exitX=0.5;exitY=0;exitDx=0;exitDy=0;entryX=0.5;entryY=1;entryDx=0;entryDy=0;dashed=1;endArrow=open;endFill=0;" edge="1" parent="1" source="iZBhrlPGG-_70FGbJEdC-9" target="iZBhrlPGG-_70FGbJEdC-3">
          <mxGeometry relative="1" as="geometry" />
        </mxCell>
        <mxCell id="iZBhrlPGG-_70FGbJEdC-9" value="LocalFile" style="rounded=0;whiteSpace=wrap;html=1;sketch=0;" vertex="1" parent="1">
          <mxGeometry x="80" y="550" width="126" height="48" as="geometry" />
        </mxCell>
        <mxCell id="iZBhrlPGG-_70FGbJEdC-16" value="read from database" style="edgeStyle=orthogonalEdgeStyle;rounded=0;orthogonalLoop=1;jettySize=auto;html=1;exitX=0.5;exitY=0;exitDx=0;exitDy=0;entryX=0.5;entryY=1;entryDx=0;entryDy=0;dashed=1;endArrow=open;endFill=0;" edge="1" parent="1" source="iZBhrlPGG-_70FGbJEdC-14" target="iZBhrlPGG-_70FGbJEdC-15">
          <mxGeometry relative="1" as="geometry" />
        </mxCell>
        <mxCell id="iZBhrlPGG-_70FGbJEdC-14" value="ConfigMap" style="rounded=0;whiteSpace=wrap;html=1;sketch=0;" vertex="1" parent="1">
          <mxGeometry x="280" y="300" width="126" height="48" as="geometry" />
        </mxCell>
        <mxCell id="iZBhrlPGG-_70FGbJEdC-15" value="etcd" style="rounded=0;whiteSpace=wrap;html=1;sketch=0;" vertex="1" parent="1">
          <mxGeometry x="280" y="170" width="126" height="48" as="geometry" />
        </mxCell>
        <mxCell id="iZBhrlPGG-_70FGbJEdC-22" value="set" style="edgeStyle=orthogonalEdgeStyle;rounded=0;orthogonalLoop=1;jettySize=auto;html=1;exitX=0.5;exitY=0;exitDx=0;exitDy=0;entryX=1;entryY=0.5;entryDx=0;entryDy=0;dashed=1;endArrow=open;endFill=0;" edge="1" parent="1" source="iZBhrlPGG-_70FGbJEdC-19" target="iZBhrlPGG-_70FGbJEdC-15">
          <mxGeometry relative="1" as="geometry" />
        </mxCell>
        <mxCell id="iZBhrlPGG-_70FGbJEdC-19" value="Region&lt;br&gt;Cache&amp;nbsp;&lt;br&gt;Backup&lt;br&gt;Move&lt;br&gt;{(accessToken)&lt;br&gt;(accessSecret)},&lt;br&gt;{(accessToken)&lt;br&gt;(accessSecret)}" style="rounded=0;whiteSpace=wrap;html=1;align=left;" vertex="1" parent="1">
          <mxGeometry x="414" y="470" width="236" height="172" as="geometry" />
        </mxCell>
        <mxCell id="iZBhrlPGG-_70FGbJEdC-20" value="&lt;b&gt;Config&lt;/b&gt;" style="text;html=1;align=center;verticalAlign=middle;resizable=0;points=[];autosize=1;" vertex="1" parent="1">
          <mxGeometry x="414" y="450" width="50" height="20" as="geometry" />
        </mxCell>
        <mxCell id="iZBhrlPGG-_70FGbJEdC-24" value="withtoken" style="edgeStyle=orthogonalEdgeStyle;rounded=0;orthogonalLoop=1;jettySize=auto;html=1;dashed=1;endArrow=open;endFill=0;entryX=1;entryY=0.5;entryDx=0;entryDy=0;" edge="1" parent="1" source="iZBhrlPGG-_70FGbJEdC-23" target="iZBhrlPGG-_70FGbJEdC-25">
          <mxGeometry relative="1" as="geometry">
            <mxPoint x="270" y="380" as="targetPoint" />
            <Array as="points">
              <mxPoint x="320" y="384" />
            </Array>
          </mxGeometry>
        </mxCell>
        <mxCell id="iZBhrlPGG-_70FGbJEdC-23" value="User: xxx" style="text;html=1;align=center;verticalAlign=middle;resizable=0;points=[];autosize=1;" vertex="1" parent="1">
          <mxGeometry x="300" y="444" width="70" height="20" as="geometry" />
        </mxCell>
        <mxCell id="iZBhrlPGG-_70FGbJEdC-26" style="edgeStyle=orthogonalEdgeStyle;rounded=0;orthogonalLoop=1;jettySize=auto;html=1;exitX=0;exitY=0.5;exitDx=0;exitDy=0;dashed=1;endArrow=open;endFill=0;" edge="1" parent="1" source="iZBhrlPGG-_70FGbJEdC-25">
          <mxGeometry relative="1" as="geometry">
            <mxPoint x="170" y="384" as="targetPoint" />
          </mxGeometry>
        </mxCell>
        <mxCell id="iZBhrlPGG-_70FGbJEdC-25" value="token" style="rounded=0;whiteSpace=wrap;html=1;sketch=0;" vertex="1" parent="1">
          <mxGeometry x="206" y="360" width="36" height="48" as="geometry" />
        </mxCell>
        <mxCell id="iZBhrlPGG-_70FGbJEdC-28" value="用量统计" style="verticalLabelPosition=bottom;verticalAlign=top;html=1;shape=mxgraph.basic.donut;dx=25;align=left;" vertex="1" parent="1">
          <mxGeometry x="300" y="580" width="100" height="100" as="geometry" />
        </mxCell>
        <mxCell id="iZBhrlPGG-_70FGbJEdC-29" value="对象列表" style="verticalLabelPosition=bottom;verticalAlign=top;html=1;shape=mxgraph.basic.layered_rect;dx=10;outlineConnect=0;align=left;" vertex="1" parent="1">
          <mxGeometry x="414" y="650" width="100" height="60" as="geometry" />
        </mxCell>
      </root>
    </mxGraphModel>
  </diagram>
</mxfile>
